<svg width="24" height="8" viewBox="0 0 24 8" fill="none" xmlns="http://www.w3.org/2000/svg">
<path d="M0.528277 0.305919C0.866635 0.110039 1.32548 0 1.80392 0C2.28236 0 2.74121 0.110039 3.07957 0.305919L12.0109 5.47795L20.9422 0.305919C21.2825 0.115591 21.7383 0.0102748 22.2114 0.0126554C22.6845 0.015036 23.137 0.124922 23.4715 0.318647C23.8061 0.512371 23.9958 0.774434 23.9999 1.04839C24.004 1.32235 23.8222 1.58628 23.4935 1.78334L13.2865 7.69408C12.9482 7.88996 12.4893 8 12.0109 8C11.5325 8 11.0736 7.88996 10.7352 7.69408L0.528277 1.78334C0.190021 1.5874 0 1.32169 0 1.04463C0 0.767573 0.190021 0.501858 0.528277 0.305919V0.305919Z" fill="#0B0131" fill-opacity="0.45"/>
</svg>
