<svg width="100" height="100" viewBox="0 0 100 100" fill="none" xmlns="http://www.w3.org/2000/svg">
<path d="M16.6126 68.9125C17.398 69.1749 18.0471 69.7383 18.4174 70.4789C18.7877 71.2195 18.8489 72.0768 18.5876 72.8625L15.4626 82.2375C15.3449 82.641 15.147 83.0167 14.8807 83.342C14.6145 83.6672 14.2853 83.9355 13.913 84.1305C13.5406 84.3256 13.1327 84.4436 12.7137 84.4774C12.2947 84.5112 11.8732 84.4601 11.4744 84.3271C11.0756 84.1942 10.7077 83.9822 10.3928 83.7037C10.0779 83.4253 9.82235 83.0862 9.64152 82.7067C9.4607 82.3273 9.3583 81.9152 9.34045 81.4952C9.32259 81.0752 9.38966 80.6559 9.53763 80.2625L12.6626 70.8875C12.925 70.1021 13.4884 69.4531 14.229 69.0827C14.9696 68.7124 15.8269 68.6512 16.6126 68.9125ZM75.9876 68.9125C76.773 69.1749 77.4221 69.7383 77.7924 70.4789C78.1627 71.2195 78.2239 72.0768 77.9626 72.8625L74.8376 82.2375C74.5531 82.994 73.9865 83.6109 73.2569 83.9586C72.5272 84.3063 71.6912 84.3577 70.9244 84.1021C70.1576 83.8465 69.5197 83.3038 69.1446 82.5878C68.7694 81.8719 68.6863 81.0384 68.9126 80.2625L72.0376 70.8875C72.3 70.1021 72.8634 69.4531 73.604 69.0827C74.3446 68.7124 75.2019 68.6512 75.9876 68.9125ZM29.1126 78.2875C29.898 78.5499 30.5471 79.1133 30.9174 79.8539C31.2877 80.5945 31.3489 81.4518 31.0876 82.2375L27.9626 91.6125C27.8449 92.016 27.647 92.3917 27.3807 92.717C27.1145 93.0422 26.7853 93.3105 26.413 93.5055C26.0406 93.7006 25.6327 93.8186 25.2137 93.8524C24.7947 93.8862 24.3732 93.8351 23.9744 93.7021C23.5756 93.5692 23.2077 93.3572 22.8928 93.0787C22.5779 92.8003 22.3223 92.4612 22.1415 92.0817C21.9607 91.7022 21.8583 91.2902 21.8404 90.8702C21.8226 90.4502 21.8897 90.0309 22.0376 89.6375L25.1626 80.2625C25.425 79.4771 25.9884 78.828 26.729 78.4577C27.4696 78.0874 28.3269 78.0262 29.1126 78.2875ZM88.4876 78.2875C89.273 78.5499 89.9221 79.1133 90.2924 79.8539C90.6627 80.5945 90.7239 81.4518 90.4626 82.2375L87.3376 91.6125C87.0531 92.369 86.4865 92.9859 85.7569 93.3336C85.0272 93.6813 84.1912 93.7327 83.4244 93.4771C82.6576 93.2215 82.0197 92.6788 81.6446 91.9628C81.2694 91.2469 81.1863 90.4134 81.4126 89.6375L84.5376 80.2625C84.8 79.4771 85.3634 78.828 86.104 78.4577C86.8446 78.0874 87.7019 78.0262 88.4876 78.2875ZM44.0814 70.475C44.3411 69.9566 44.74 69.5207 45.2334 69.216C45.7268 68.9114 46.2953 68.75 46.8751 68.75H53.1251C53.62 68.7504 54.1078 68.8683 54.5482 69.094C54.9886 69.3198 55.3691 69.6469 55.6584 70.0484C55.9476 70.45 56.1374 70.9145 56.212 71.4037C56.2866 71.893 56.244 72.393 56.0876 72.8625L54.3376 78.125H59.3751C59.9632 78.1258 60.539 78.2926 61.0365 78.606C61.534 78.9195 61.933 79.367 62.1876 79.897C62.4422 80.4271 62.5421 81.0182 62.4757 81.6025C62.4094 82.1868 62.1796 82.7405 61.8126 83.2L49.3126 98.825C48.8666 99.379 48.245 99.7643 47.5504 99.9173C46.8558 100.07 46.1298 99.9817 45.4924 99.6662C44.8549 99.3508 44.3441 98.8273 44.0444 98.1823C43.7447 97.5373 43.6739 96.8094 43.8439 96.1187L46.0001 87.5H40.6251C40.0922 87.5 39.5682 87.3637 39.1028 87.1041C38.6374 86.8444 38.2462 86.4701 37.9662 86.0167C37.6862 85.5632 37.5269 85.0457 37.5033 84.5134C37.4797 83.981 37.5926 83.4514 37.8314 82.975L44.0814 70.475ZM83.7814 25.1687C82.4835 18.626 79.1265 12.6701 74.2014 8.17175C69.2762 3.67343 63.0412 0.868666 56.4079 0.167559C49.7746 -0.533548 43.091 0.905769 37.3343 4.27506C31.5775 7.64436 27.0496 12.7669 24.4126 18.8938C21.4554 18.5531 18.4597 18.8196 15.609 19.6769C12.7583 20.5343 10.1126 21.9644 7.83386 23.8799C5.55512 25.7953 3.6913 28.1556 2.35651 30.8164C1.02172 33.4772 0.244056 36.3824 0.0711241 39.3542C-0.101808 42.326 0.333632 45.3019 1.35079 48.0995C2.36794 50.8972 3.9454 53.4578 5.98659 55.6246C8.02778 57.7914 10.4897 59.5188 13.2218 60.701C15.9538 61.8832 18.8983 62.4954 21.8751 62.5H81.2501C86.007 62.5054 90.5882 60.7026 94.0657 57.4567C97.5431 54.2108 99.6568 49.7645 99.9786 45.0184C100.3 40.2724 98.8062 35.5815 95.7988 31.8959C92.7914 28.2102 88.4955 25.8055 83.7814 25.1687Z" fill="#ff40bf"/>
</svg>
